<svg xmlns="http://www.w3.org/2000/svg" version="1.1" xmlns:xlink="http://www.w3.org/1999/xlink" xmlns:svgjs="http://svgjs.dev/svgjs" width="1000" height="623" viewBox="0 0 1000 623"><g transform="matrix(1,0,0,1,-0.6060606060606233,0.2522267206477409)"><svg viewBox="0 0 396 247" data-background-color="#1f2d5a" preserveAspectRatio="xMidYMid meet" height="623" width="1000" xmlns="http://www.w3.org/2000/svg" xmlns:xlink="http://www.w3.org/1999/xlink"><g id="tight-bounds" transform="matrix(1,0,0,1,0.2400000000000091,-0.09999999999999432)"><svg viewBox="0 0 395.52 247.2" height="247.2" width="395.52"><g><svg></svg></g><g><svg viewBox="0 0 395.52 247.2" height="247.2" width="395.52"><g transform="matrix(1,0,0,1,107.24185423728811,47.215199999999996)"><svg viewBox="0 0 181.03629152542376 152.7696" height="152.7696" width="181.03629152542376"><g><svg viewBox="0 0 181.03629152542376 152.7696" height="152.7696" width="181.03629152542376"><g><svg viewBox="0 0 181.03629152542376 152.7696" height="152.7696" width="181.03629152542376"><g><svg viewBox="0 0 181.03629152542376 152.7696" height="152.7696" width="181.03629152542376"><g id="textblocktransform"><svg viewBox="0 0 181.03629152542376 152.7696" height="152.7696" width="181.03629152542376" id="textblock"><g><svg viewBox="0 0 181.03629152542376 152.7696" height="152.7696" width="181.03629152542376"><g transform="matrix(1,0,0,1,0,0)"><svg width="181.03629152542376" viewBox="3.75 -35.400001525878906 41.95000076293945 35.400001525878906" height="152.7696" data-palette-color="#fbfbfb"><path d="M16-24.95Q24.75-24.95 24.75-15.3L24.75-15.3 24.75 0 20.7 0 20.7-15.05Q20.7-18.45 19.38-20 18.05-21.55 15.15-21.55L15.15-21.55Q11.8-21.55 9.8-19.5 7.8-17.45 7.8-13.95L7.8-13.95 7.8 0 3.75 0 3.75-35.25 7.8-35.25 7.8-20.45Q9-22.65 11.13-23.8 13.25-24.95 16-24.95L16-24.95ZM37.55-25.7L37.55-24.35 44.45-24.35 44.45-21.15 37.55-21.15 37.55 0 33.5 0 33.5-21.15 28.75-21.15 28.75-24.35 33.5-24.35 33.5-25.15Q33.5-30 35.92-32.5 38.35-35 43.4-35.3L43.4-35.3 45.4-35.4 45.7-32.25 43.4-32.1Q40.35-31.9 38.95-30.38 37.55-28.85 37.55-25.7L37.55-25.7Z" opacity="1" transform="matrix(1,0,0,1,0,0)" fill="#fbfbfb" class="undefined-text-0" data-fill-palette-color="primary" id="text-0"></path></svg></g></svg></g></svg></g></svg></g></svg></g></svg></g></svg></g><g><path d="M0 123.6c0-68.262 55.338-123.6 123.6-123.6 30.402 0 58.24 10.976 79.768 29.183l-11.147 0c-19.26-14.022-42.974-22.294-68.621-22.295-64.458 0-116.712 52.254-116.712 116.712 0 64.458 52.254 116.712 116.712 116.712 25.647 0 49.361-8.272 68.621-22.295l11.147 0c-21.528 18.206-49.366 29.183-79.768 29.183-68.262 0-123.6-55.338-123.6-123.6z" fill="#fbfbfb" stroke="transparent" data-fill-palette-color="tertiary"></path></g></svg></g><defs></defs></svg><rect width="395.52" height="247.2" fill="none" stroke="none" visibility="hidden"></rect></g></svg></g></svg>